<svg xmlns="http://www.w3.org/2000/svg" width="128" height="128" viewBox="0 0 128 128" shape-rendering="crispEdges">
  <path d="M17 72C17 35 35 12 64 12s47 23 47 60v43l-16-12-15 14-16-14-16 14-15-14-16 12z" fill="#c6ffe7" stroke="#4d587a" stroke-width="6"/>
  <rect x="36" y="54" width="15" height="20" fill="#343a5d"/>
  <rect x="77" y="54" width="15" height="20" fill="#343a5d"/>
  <rect x="40" y="57" width="5" height="6" fill="#fff"/>
  <rect x="81" y="57" width="5" height="6" fill="#fff"/>
  <path d="M51 88h26v10H51z" fill="#ff83b5"/>
  <rect x="57" y="88" width="14" height="5" fill="#fff"/>
  <rect x="23" y="79" width="18" height="7" fill="#8ef0d0"/>
  <rect x="87" y="79" width="18" height="7" fill="#8ef0d0"/>
  <path d="M8 31h8v8H8zM108 23h10v10h-10zM4 100h7v7H4z" fill="#fff399" stroke="#a05b91" stroke-width="3"/>
</svg>
