<svg xmlns="http://www.w3.org/2000/svg" width="128" height="128" viewBox="0 0 128 128" shape-rendering="crispEdges">
  <path d="M31 53C18 26 22 5 36 7c13 2 15 27 17 39h22C77 32 80 7 93 7c14 0 17 23 4 48 10 10 15 24 13 38-3 21-20 29-46 29s-43-8-46-29c-2-15 3-29 13-40z" fill="#d8f6ff" stroke="#4d5b88" stroke-width="6"/>
  <path d="M32 16c7 5 9 20 11 29M94 16c-7 5-9 20-11 29" stroke="#ff92bf" stroke-width="8" fill="none"/>
  <rect x="37" y="68" width="12" height="15" fill="#354166"/>
  <rect x="79" y="68" width="12" height="15" fill="#354166"/>
  <rect x="41" y="69" width="4" height="5" fill="#fff"/>
  <rect x="83" y="69" width="4" height="5" fill="#fff"/>
  <rect x="59" y="84" width="10" height="7" fill="#ff76aa"/>
  <path d="M64 91v8M64 99l-9 5M64 99l9 5" stroke="#4d5b88" stroke-width="4" fill="none"/>
  <rect x="26" y="90" width="18" height="6" fill="#ffb7d0"/>
  <rect x="84" y="90" width="18" height="6" fill="#ffb7d0"/>
  <rect x="51" y="111" width="26" height="10" fill="#fff1a6"/>
</svg>
