<svg xmlns="http://www.w3.org/2000/svg" width="480" height="260" viewBox="0 0 480 260" shape-rendering="crispEdges">
  <rect width="480" height="260" fill="#91e5ff"/>
  <rect y="154" width="480" height="106" fill="#72dd82"/>
  <rect y="154" width="480" height="12" fill="#39b866"/>
  <rect x="45" y="38" width="70" height="20" fill="#fff"/>
  <rect x="58" y="25" width="42" height="20" fill="#fff"/>
  <rect x="320" y="50" width="94" height="20" fill="#fff"/>
  <rect x="340" y="35" width="48" height="18" fill="#fff"/>
  <rect x="239" y="25" width="30" height="30" fill="#fff175"/>
  <rect x="232" y="32" width="44" height="16" fill="#fff175"/>
  <rect x="246" y="18" width="16" height="44" fill="#fff175"/>
  <path d="M20 139h440" stroke="#fff8c4" stroke-width="8"/>
  <path d="M42 112v69M102 112v69M162 112v69M222 112v69M282 112v69M342 112v69M402 112v69" stroke="#fff8c4" stroke-width="10"/>
  <rect x="382" y="94" width="16" height="78" fill="#8b663b"/>
  <rect x="350" y="64" width="78" height="49" fill="#47bd65"/>
  <rect x="366" y="48" width="46" height="72" fill="#47bd65"/>
  <rect x="34" y="198" width="12" height="32" fill="#238d54"/>
  <rect x="24" y="193" width="12" height="12" fill="#ff82bc"/>
  <rect x="44" y="193" width="12" height="12" fill="#ff82bc"/>
  <rect x="34" y="183" width="12" height="12" fill="#ffe266"/>
  <rect x="431" y="210" width="10" height="28" fill="#238d54"/>
  <rect x="421" y="201" width="10" height="12" fill="#8f6bff"/>
  <rect x="441" y="201" width="10" height="12" fill="#8f6bff"/>
  <rect x="431" y="191" width="10" height="12" fill="#fff"/>
  <path d="M80 245l10-18 10 18 10-18 10 18M300 245l10-18 10 18 10-18 10 18" stroke="#2aa85a" stroke-width="6" fill="none"/>
  <rect x="203" y="228" width="74" height="10" fill="#c59762"/>
  <rect x="215" y="218" width="50" height="10" fill="#edc593"/>
</svg>
