<svg xmlns="http://www.w3.org/2000/svg" width="480" height="260" viewBox="0 0 480 260" shape-rendering="crispEdges">
  <rect width="480" height="260" fill="#16194f"/>
  <rect y="0" width="480" height="130" fill="#252a72"/>
  <rect x="370" y="30" width="52" height="52" fill="#fff19a"/>
  <rect x="389" y="22" width="44" height="44" fill="#252a72"/>
  <g fill="#fff7c2">
    <rect x="45" y="26" width="7" height="7"/><rect x="96" y="63" width="9" height="9"/><rect x="159" y="31" width="6" height="6"/><rect x="228" y="70" width="8" height="8"/><rect x="286" y="25" width="7" height="7"/><rect x="335" y="91" width="6" height="6"/><rect x="447" y="106" width="8" height="8"/>
  </g>
  <g fill="#ff8dcb">
    <rect x="70" y="98" width="6" height="18"/><rect x="64" y="104" width="18" height="6"/><rect x="267" y="48" width="6" height="18"/><rect x="261" y="54" width="18" height="6"/>
  </g>
  <rect y="128" width="480" height="132" fill="#252439"/>
  <rect x="0" y="166" width="65" height="94" fill="#101122"/>
  <rect x="72" y="143" width="82" height="117" fill="#17172a"/>
  <rect x="162" y="181" width="60" height="79" fill="#101122"/>
  <rect x="228" y="151" width="93" height="109" fill="#17172a"/>
  <rect x="329" y="174" width="65" height="86" fill="#101122"/>
  <rect x="401" y="138" width="79" height="122" fill="#17172a"/>
  <g fill="#6ee8e2">
    <rect x="18" y="184" width="12" height="16"/><rect x="42" y="184" width="12" height="16"/><rect x="91" y="161" width="13" height="17"/><rect x="119" y="161" width="13" height="17"/><rect x="247" y="169" width="13" height="17"/><rect x="281" y="169" width="13" height="17"/><rect x="421" y="157" width="13" height="17"/><rect x="451" y="157" width="13" height="17"/>
  </g>
  <g fill="#ff80c1">
    <rect x="18" y="217" width="12" height="16"/><rect x="119" y="201" width="13" height="17"/><rect x="181" y="202" width="13" height="17"/><rect x="281" y="207" width="13" height="17"/><rect x="347" y="195" width="13" height="17"/><rect x="421" y="201" width="13" height="17"/>
  </g>
  <rect y="244" width="480" height="16" fill="#080914"/>
  <rect x="202" y="227" width="76" height="9" fill="#6f6a91"/>
</svg>
