<svg xmlns="http://www.w3.org/2000/svg" width="480" height="260" viewBox="0 0 480 260" shape-rendering="crispEdges">
  <rect width="480" height="260" fill="#ffd5eb"/>
  <rect y="0" width="480" height="14" fill="#ff8fc5"/>
  <path d="M0 38h480M0 78h480M0 118h480M40 14v120M120 14v120M200 14v120M280 14v120M360 14v120M440 14v120" stroke="#f6b3d6" stroke-width="3"/>
  <rect x="36" y="31" width="132" height="92" fill="#fff" stroke="#6c70ba" stroke-width="8"/>
  <rect x="44" y="39" width="56" height="76" fill="#8ce6ff"/>
  <rect x="104" y="39" width="56" height="76" fill="#78ccff"/>
  <rect x="98" y="39" width="8" height="76" fill="#6c70ba"/>
  <rect x="44" y="75" width="116" height="7" fill="#6c70ba"/>
  <rect x="58" y="48" width="14" height="14" fill="#fff8a8"/>
  <rect x="73" y="63" width="8" height="8" fill="#fff"/>
  <rect x="328" y="37" width="104" height="78" fill="#fff7bd" stroke="#e75a9c" stroke-width="7"/>
  <rect x="348" y="53" width="15" height="15" fill="#ff6eac"/>
  <rect x="397" y="53" width="15" height="15" fill="#ff6eac"/>
  <rect x="363" y="69" width="34" height="15" fill="#ff6eac"/>
  <rect x="370" y="84" width="20" height="8" fill="#ff6eac"/>
  <rect y="132" width="480" height="128" fill="#9ce8d3"/>
  <path d="M0 132h480M0 196h480M60 132v128M180 132v128M300 132v128M420 132v128" stroke="#63c5b2" stroke-width="5"/>
  <rect x="18" y="162" width="150" height="72" fill="#fdf7ff" stroke="#7068a8" stroke-width="7"/>
  <rect x="28" y="151" width="58" height="30" fill="#ff92c6" stroke="#7068a8" stroke-width="6"/>
  <rect x="98" y="177" width="60" height="47" fill="#ffcae2"/>
  <path d="M106 185h14v14h14v-14h14v28h-42z" fill="#fff"/>
  <rect x="348" y="160" width="90" height="12" fill="#8064ae"/>
  <rect x="358" y="172" width="12" height="55" fill="#8064ae"/>
  <rect x="416" y="172" width="12" height="55" fill="#8064ae"/>
  <rect x="369" y="137" width="48" height="31" fill="#b9f1ff" stroke="#4f73aa" stroke-width="5"/>
  <rect x="378" y="144" width="30" height="15" fill="#ff7db9"/>
  <rect x="218" y="221" width="46" height="10" fill="#f7fff0"/>
  <rect x="226" y="213" width="30" height="8" fill="#ff76b2"/>
</svg>
